<?xml version="1.0" encoding="UTF-8"?>
<svg width="80px" height="16px" viewBox="0 0 80 16" version="1.1" xmlns="http://www.w3.org/2000/svg" xmlns:xlink="http://www.w3.org/1999/xlink">
    <!-- Generator: Sketch 50.2 (55047) - http://www.bohemiancoding.com/sketch -->
    <title>Group</title>
    <desc>Created with Sketch.</desc>
    <defs></defs>
    <g id="Page-1" stroke="none" stroke-width="1" fill="none" fill-rule="evenodd">
        <g id="Group" transform="translate(0.000000, -1.000000)">
            <text id="AdrenaBiD" font-family="BradleyHandITCTT-Bold, Bradley Hand" font-size="13" font-style="expanded" font-weight="bold" fill="#FFFFFF">
                <tspan x="16" y="11">AdrenaBiD</tspan>
            </text>
            <g id="cardiogram" transform="translate(0.000000, 2.879997)" fill="#FC0D1C" fill-rule="nonzero">
                <path d="M20.5226589,9.1874579 L14.7228348,9.1874579 L13.8346346,4.30326107 C13.796425,4.09240244 13.5969788,3.93754611 13.3645016,3.93754611 C13.3621222,3.93754611 13.3602327,3.93754611 13.3582733,3.93754611 C13.1225069,3.93927814 12.9244604,4.09939471 12.8910094,4.31249857 L12.0157557,9.93210258 L10.9748568,0.393748196 C10.9500135,0.173716213 10.7505673,0.00526023983 10.5099723,0 C10.5066132,0 10.5032541,0 10.499965,0 C10.2627291,0 10.0609036,0.159667524 10.0274526,0.375401506 L8.65435332,9.1874579 L7.99618103,9.1874579 L7.14094195,6.443024 C7.08033831,6.24878002 6.87417397,6.11271942 6.66507043,6.12587002 C6.44602957,6.13286229 6.26078959,6.27546611 6.21502194,6.47195532 L5.58932088,9.18752205 L0.477271137,9.18752205 C0.213372389,9.18752205 0,9.38311316 0,9.62502005 C0,9.86737597 0.213372389,10.062518 0.477271137,10.062518 L5.97540664,10.062518 C6.20067582,10.062518 6.39543323,9.91811804 6.44218061,9.71559881 L6.75051736,8.37770172 L7.17670229,9.74491503 C7.23541644,9.93344972 7.42345567,10.062518 7.63633819,10.062518 L9.0681516,10.062518 C9.30580743,10.062518 9.50721305,9.90285052 9.54066402,9.68756558 L10.4159877,4.06834646 L11.4568866,13.6062518 C11.4817299,13.8267328 11.6811761,13.9947398 11.9217711,14 C11.9251302,14 11.9284193,14 11.9317784,14 C12.1690144,14 12.3708399,13.8403325 12.4042908,13.6250475 L13.399912,7.23584478 L13.8475812,9.69673893 C13.8857908,9.90759756 14.085237,10.062518 14.3182041,10.062518 L20.5227289,10.062518 C20.7866276,10.062518 21,9.86692693 21,9.62502005 C20.99993,9.38304901 20.7865576,9.1874579 20.5226589,9.1874579 Z" id="Shape"></path>
            </g>
            <path d="M18.5,11.5 C64.8770492,11.5 85.0244558,11.5 78.9422198,11.5" id="Line" stroke="#FC0D1C" stroke-width="0.9" stroke-linecap="round" transform="translate(49.250000, 12.000000) rotate(-180.000000) translate(-49.250000, -12.000000) "></path>
        </g>
    </g>
</svg>